<?xml version="1.0" encoding="utf-8"?>
<svg xmlns="http://www.w3.org/2000/svg"
	xmlns:xlink="http://www.w3.org/1999/xlink"
	width="241px" height="54px" viewBox="0 0 241 54">
<path fillRule="evenodd" d="M 238.64 43.63C 238.64 43.63 237.18 43.63 237.18 43.63 237.18 43.63 237.18 45.77 237.18 45.77 237.18 45.77 236.5 45.77 236.5 45.77 236.5 45.77 236.5 39.71 236.5 39.71 236.5 39.71 238.75 39.71 238.75 39.71 240.11 39.71 241 40.43 241 41.63 241 41.63 241 41.65 241 41.65 241 42.95 239.92 43.63 238.64 43.63ZM 240.31 41.65C 240.31 40.79 239.67 40.34 238.7 40.34 238.7 40.34 237.18 40.34 237.18 40.34 237.18 40.34 237.18 43 237.18 43 237.18 43 238.66 43 238.66 43 239.66 43 240.31 42.47 240.31 41.67 240.31 41.67 240.31 41.65 240.31 41.65ZM 231.45 30.22C 225.99 30.22 221.94 26.03 221.94 20.81 221.94 20.81 221.94 20.76 221.94 20.76 221.94 15.54 226.04 11.3 231.5 11.3 236.96 11.3 241 15.48 241 20.71 241 20.71 241 20.76 241 20.76 241 25.98 236.91 30.22 231.45 30.22ZM 236 20.76C 236 18.13 234.15 15.85 231.45 15.85 228.77 15.85 226.97 18.08 226.97 20.71 226.97 20.71 226.97 20.76 226.97 20.76 226.97 23.38 228.82 25.67 231.5 25.67 234.2 25.67 236 23.44 236 20.81 236 20.81 236 20.76 236 20.76ZM 218.6 45.87C 216.77 45.87 215.54 44.43 215.54 42.75 215.54 42.75 215.54 42.74 215.54 42.74 215.54 41.07 216.79 39.6 218.62 39.6 220.44 39.6 221.67 41.05 221.67 42.72 221.67 42.72 221.67 42.74 221.67 42.74 221.67 44.41 220.43 45.87 218.6 45.87ZM 220.97 42.74C 220.97 41.36 219.97 40.23 218.6 40.23 217.22 40.23 216.25 41.34 216.25 42.72 216.25 42.72 216.25 42.74 216.25 42.74 216.25 44.11 217.24 45.24 218.62 45.24 219.99 45.24 220.97 44.13 220.97 42.75 220.97 42.75 220.97 42.74 220.97 42.74ZM 205.46 11.66C 205.46 11.66 210.37 11.66 210.37 11.66 210.37 11.66 210.37 25.44 210.37 25.44 210.37 25.44 218.93 25.44 218.93 25.44 218.93 25.44 218.93 29.85 218.93 29.85 218.93 29.85 205.46 29.85 205.46 29.85 205.46 29.85 205.46 11.66 205.46 11.66ZM 198.78 45.87C 196.89 45.87 195.72 44.49 195.72 42.75 195.72 42.75 195.72 42.74 195.72 42.74 195.72 41.07 196.94 39.6 198.74 39.6 199.75 39.6 200.38 39.9 200.98 40.41 200.98 40.41 200.54 40.93 200.54 40.93 200.08 40.52 199.56 40.23 198.71 40.23 197.38 40.23 196.43 41.37 196.43 42.72 196.43 42.72 196.43 42.74 196.43 42.74 196.43 44.18 197.35 45.26 198.81 45.26 199.49 45.26 200.13 44.99 200.54 44.65 200.54 44.65 200.54 43.14 200.54 43.14 200.54 43.14 198.71 43.14 198.71 43.14 198.71 43.14 198.71 42.53 198.71 42.53 198.71 42.53 201.19 42.53 201.19 42.53 201.19 42.53 201.19 44.94 201.19 44.94 200.64 45.45 199.79 45.87 198.78 45.87ZM 187.37 11.66C 187.37 11.66 192.27 11.66 192.27 11.66 192.27 11.66 192.27 25.44 192.27 25.44 192.27 25.44 200.83 25.44 200.83 25.44 200.83 25.44 200.83 29.85 200.83 29.85 200.83 29.85 187.37 29.85 187.37 29.85 187.37 29.85 187.37 11.66 187.37 11.66ZM 181.22 39.71C 181.22 39.71 181.9 39.71 181.9 39.71 181.9 39.71 181.9 45.13 181.9 45.13 181.9 45.13 185.29 45.13 185.29 45.13 185.29 45.13 185.29 45.77 185.29 45.77 185.29 45.77 181.22 45.77 181.22 45.77 181.22 45.77 181.22 39.71 181.22 39.71ZM 167.98 11.66C 167.98 11.66 182.21 11.66 182.21 11.66 182.21 11.66 182.21 15.95 182.21 15.95 182.21 15.95 172.83 15.95 172.83 15.95 172.83 15.95 172.83 18.71 172.83 18.71 172.83 18.71 181.32 18.71 181.32 18.71 181.32 18.71 181.32 22.68 181.32 22.68 181.32 22.68 172.83 22.68 172.83 22.68 172.83 22.68 172.83 25.57 172.83 25.57 172.83 25.57 182.33 25.57 182.33 25.57 182.33 25.57 182.33 29.85 182.33 29.85 182.33 29.85 167.98 29.85 167.98 29.85 167.98 29.85 167.98 11.66 167.98 11.66ZM 161.44 40.8C 161.44 40.8 161.44 45.77 161.44 45.77 161.44 45.77 160.78 45.77 160.78 45.77 160.78 45.77 160.78 39.71 160.78 39.71 160.78 39.71 161.41 39.71 161.41 39.71 161.41 39.71 165.2 44.56 165.2 44.56 165.2 44.56 165.2 39.71 165.2 39.71 165.2 39.71 165.86 39.71 165.86 39.71 165.86 39.71 165.86 45.77 165.86 45.77 165.86 45.77 165.32 45.77 165.32 45.77 165.32 45.77 161.44 40.8 161.44 40.8ZM 155.67 25.62C 157.51 25.62 158.6 24.74 159.66 23.41 159.66 23.41 163.35 26.11 163.35 26.11 161.68 28.48 159.43 30.22 155.51 30.22 150.46 30.22 146.39 26.24 146.39 20.81 146.39 20.81 146.39 20.76 146.39 20.76 146.39 15.46 150.36 11.3 155.72 11.3 159.33 11.3 161.65 12.86 163.22 15.09 163.22 15.09 159.53 18.03 159.53 18.03 158.52 16.73 157.36 15.9 155.67 15.9 153.19 15.9 151.45 18.06 151.45 20.71 151.45 20.71 151.45 20.76 151.45 20.76 151.45 23.49 153.19 25.62 155.67 25.62ZM 144.17 39.71C 144.17 39.71 144.84 39.71 144.84 39.71 144.84 39.71 144.84 45.77 144.84 45.77 144.84 45.77 144.17 45.77 144.17 45.77 144.17 45.77 144.17 39.71 144.17 39.71ZM 136.31 11.66C 136.31 11.66 141.23 11.66 141.23 11.66 141.23 11.66 141.23 29.85 141.23 29.85 141.23 29.85 136.31 29.85 136.31 29.85 136.31 29.85 136.31 11.66 136.31 11.66ZM 139.4 40.34C 139.4 40.34 137.38 40.34 137.38 40.34 137.38 40.34 137.38 45.77 137.38 45.77 137.38 45.77 136.69 45.77 136.69 45.77 136.69 45.77 136.69 40.34 136.69 40.34 136.69 40.34 134.67 40.34 134.67 40.34 134.67 40.34 134.67 39.71 134.67 39.71 134.67 39.71 139.4 39.71 139.4 39.71 139.4 39.71 139.4 40.34 139.4 40.34ZM 126.22 29.85C 126.22 29.85 121.32 29.85 121.32 29.85 121.32 29.85 121.32 16.08 121.32 16.08 121.32 16.08 116.01 16.08 116.01 16.08 116.01 16.08 116.01 11.66 116.01 11.66 116.01 11.66 131.53 11.66 131.53 11.66 131.53 11.66 131.53 16.08 131.53 16.08 131.53 16.08 126.22 16.08 126.22 16.08 126.22 16.08 126.22 29.85 126.22 29.85ZM 119.85 44.56C 119.85 44.56 119.85 39.71 119.85 39.71 119.85 39.71 120.51 39.71 120.51 39.71 120.51 39.71 120.51 45.77 120.51 45.77 120.51 45.77 119.97 45.77 119.97 45.77 119.97 45.77 116.09 40.8 116.09 40.8 116.09 40.8 116.09 45.77 116.09 45.77 116.09 45.77 115.43 45.77 115.43 45.77 115.43 45.77 115.43 39.71 115.43 39.71 115.43 39.71 116.07 39.71 116.07 39.71 116.07 39.71 119.85 44.56 119.85 44.56ZM 99.48 19.88C 99.48 19.88 99.48 29.85 99.48 29.85 99.48 29.85 94.62 29.85 94.62 29.85 94.62 29.85 94.62 11.66 94.62 11.66 94.62 11.66 99.2 11.66 99.2 11.66 99.2 11.66 106.48 21.28 106.48 21.28 106.48 21.28 106.48 11.66 106.48 11.66 106.48 11.66 111.33 11.66 111.33 11.66 111.33 11.66 111.33 29.85 111.33 29.85 111.33 29.85 107.03 29.85 107.03 29.85 107.03 29.85 99.48 19.88 99.48 19.88ZM 89.87 45.77C 89.87 45.77 89.18 45.77 89.18 45.77 89.18 45.77 89.18 40.34 89.18 40.34 89.18 40.34 87.16 40.34 87.16 40.34 87.16 40.34 87.16 39.71 87.16 39.71 87.16 39.71 91.88 39.71 91.88 39.71 91.88 39.71 91.88 40.34 91.88 40.34 91.88 40.34 89.87 40.34 89.87 40.34 89.87 40.34 89.87 45.77 89.87 45.77ZM 79.99 30.22C 74.53 30.22 70.48 26.03 70.48 20.81 70.48 20.81 70.48 20.76 70.48 20.76 70.48 15.54 74.58 11.3 80.04 11.3 85.5 11.3 89.54 15.48 89.54 20.71 89.54 20.71 89.54 20.76 89.54 20.76 89.54 25.98 85.44 30.22 79.99 30.22ZM 84.54 20.76C 84.54 18.13 82.69 15.85 79.99 15.85 77.31 15.85 75.51 18.08 75.51 20.71 75.51 20.71 75.51 20.76 75.51 20.76 75.51 23.38 77.36 25.67 80.04 25.67 82.74 25.67 84.54 23.44 84.54 20.81 84.54 20.81 84.54 20.76 84.54 20.76ZM 68.05 53.77C 68.05 53.77 67.68 53.99 67.68 53.99 67.68 53.99 36.37 0.22 36.37 0.22 36.37 0.22 36.74 0.01 36.74 0.01 36.74 0.01 46.62 16.98 46.62 16.98 46.62 16.98 46.62 11.66 46.62 11.66 46.62 11.66 51.8 11.66 51.8 11.66 51.8 11.66 56.02 18.71 56.02 18.71 56.02 18.71 60.24 11.66 60.24 11.66 60.24 11.66 65.42 11.66 65.42 11.66 65.42 11.66 65.42 29.85 65.42 29.85 65.42 29.85 60.55 29.85 60.55 29.85 60.55 29.85 60.55 19.41 60.55 19.41 60.55 19.41 56.02 26.53 56.02 26.53 56.02 26.53 55.92 26.53 55.92 26.53 55.92 26.53 51.42 19.46 51.42 19.46 51.42 19.46 51.42 25.23 51.42 25.23 51.42 25.23 68.05 53.77 68.05 53.77ZM 30.98 12.96C 30.98 12.96 51.54 48.15 51.54 48.15 51.54 48.15 22.92 48.4 22.92 48.4 22.92 48.4 25.24 42.79 25.24 42.79 25.24 42.79 41.89 42.64 41.89 42.64 41.89 42.64 31.08 24.14 31.08 24.14 31.08 24.14 17.44 48.45 17.44 48.45 17.44 48.45-0 48.6-0 48.6-0 48.6 25.75 3.83 25.75 3.83 25.75 3.83 28.98 9.36 28.98 9.36 28.98 9.36 9.67 42.93 9.67 42.93 9.67 42.93 14.19 42.89 14.19 42.89 14.19 42.89 30.98 12.96 30.98 12.96ZM 72.17 45.77C 72.17 45.77 71.49 45.77 71.49 45.77 71.49 45.77 71.49 39.71 71.49 39.71 71.49 39.71 72.17 39.71 72.17 39.71 72.17 39.71 72.17 45.77 72.17 45.77ZM 81.79 44.56C 81.79 44.56 81.79 39.71 81.79 39.71 81.79 39.71 82.45 39.71 82.45 39.71 82.45 39.71 82.45 45.77 82.45 45.77 82.45 45.77 81.91 45.77 81.91 45.77 81.91 45.77 78.03 40.8 78.03 40.8 78.03 40.8 78.03 45.77 78.03 45.77 78.03 45.77 77.37 45.77 77.37 45.77 77.37 45.77 77.37 39.71 77.37 39.71 77.37 39.71 78.01 39.71 78.01 39.71 78.01 39.71 81.79 44.56 81.79 44.56ZM 100.94 40.33C 100.94 40.33 97.27 40.33 97.27 40.33 97.27 40.33 97.27 42.4 97.27 42.4 97.27 42.4 100.55 42.4 100.55 42.4 100.55 42.4 100.55 43.02 100.55 43.02 100.55 43.02 97.27 43.02 97.27 43.02 97.27 43.02 97.27 45.14 97.27 45.14 97.27 45.14 100.98 45.14 100.98 45.14 100.98 45.14 100.98 45.77 100.98 45.77 100.98 45.77 96.59 45.77 96.59 45.77 96.59 45.77 96.59 39.71 96.59 39.71 96.59 39.71 100.94 39.71 100.94 39.71 100.94 39.71 100.94 40.33 100.94 40.33ZM 110.08 40.31C 110.37 40.61 110.54 41.03 110.54 41.51 110.54 41.51 110.54 41.52 110.54 41.52 110.54 42.53 109.85 43.12 108.91 43.29 108.91 43.29 110.76 45.77 110.76 45.77 110.76 45.77 109.92 45.77 109.92 45.77 109.92 45.77 108.18 43.41 108.18 43.41 108.18 43.41 106.46 43.41 106.46 43.41 106.46 43.41 106.46 45.77 106.46 45.77 106.46 45.77 105.78 45.77 105.78 45.77 105.78 45.77 105.78 39.71 105.78 39.71 105.78 39.71 108.37 39.71 108.37 39.71 109.11 39.71 109.7 39.93 110.08 40.31ZM 106.46 40.34C 106.46 40.34 106.46 42.8 106.46 42.8 106.46 42.8 108.31 42.8 108.31 42.8 109.21 42.8 109.85 42.33 109.85 41.55 109.85 41.55 109.85 41.53 109.85 41.53 109.85 40.79 109.29 40.34 108.32 40.34 108.32 40.34 106.46 40.34 106.46 40.34ZM 128.51 39.66C 128.51 39.66 131.25 45.77 131.25 45.77 131.25 45.77 130.52 45.77 130.52 45.77 130.52 45.77 129.82 44.17 129.82 44.17 129.82 44.17 126.55 44.17 126.55 44.17 126.55 44.17 125.83 45.77 125.83 45.77 125.83 45.77 125.14 45.77 125.14 45.77 125.14 45.77 127.88 39.66 127.88 39.66 127.88 39.66 128.51 39.66 128.51 39.66ZM 129.55 43.55C 129.55 43.55 128.19 40.46 128.19 40.46 128.19 40.46 126.81 43.55 126.81 43.55 126.81 43.55 129.55 43.55 129.55 43.55ZM 152.85 39.6C 154.68 39.6 155.91 41.05 155.91 42.72 155.91 42.72 155.91 42.74 155.91 42.74 155.91 44.41 154.66 45.87 152.83 45.87 151 45.87 149.78 44.43 149.78 42.75 149.78 42.75 149.78 42.74 149.78 42.74 149.78 41.07 151.02 39.6 152.85 39.6ZM 150.48 42.74C 150.48 44.11 151.48 45.24 152.85 45.24 154.22 45.24 155.2 44.13 155.2 42.75 155.2 42.75 155.2 42.74 155.2 42.74 155.2 41.36 154.21 40.23 152.83 40.23 151.46 40.23 150.48 41.34 150.48 42.72 150.48 42.72 150.48 42.74 150.48 42.74ZM 173.86 39.66C 173.86 39.66 176.6 45.77 176.6 45.77 176.6 45.77 175.87 45.77 175.87 45.77 175.87 45.77 175.17 44.17 175.17 44.17 175.17 44.17 171.9 44.17 171.9 44.17 171.9 44.17 171.18 45.77 171.18 45.77 171.18 45.77 170.49 45.77 170.49 45.77 170.49 45.77 173.23 39.66 173.23 39.66 173.23 39.66 173.86 39.66 173.86 39.66ZM 174.9 43.55C 174.9 43.55 173.53 40.46 173.53 40.46 173.53 40.46 172.16 43.55 172.16 43.55 172.16 43.55 174.9 43.55 174.9 43.55ZM 210.45 40.31C 210.75 40.61 210.92 41.03 210.92 41.51 210.92 41.51 210.92 41.52 210.92 41.52 210.92 42.53 210.23 43.12 209.29 43.29 209.29 43.29 211.13 45.77 211.13 45.77 211.13 45.77 210.3 45.77 210.3 45.77 210.3 45.77 208.56 43.41 208.56 43.41 208.56 43.41 206.84 43.41 206.84 43.41 206.84 43.41 206.84 45.77 206.84 45.77 206.84 45.77 206.16 45.77 206.16 45.77 206.16 45.77 206.16 39.71 206.16 39.71 206.16 39.71 208.75 39.71 208.75 39.71 209.48 39.71 210.08 39.93 210.45 40.31ZM 206.84 40.34C 206.84 40.34 206.84 42.8 206.84 42.8 206.84 42.8 208.69 42.8 208.69 42.8 209.59 42.8 210.23 42.33 210.23 41.55 210.23 41.55 210.23 41.53 210.23 41.53 210.23 40.79 209.66 40.34 208.69 40.34 208.69 40.34 206.84 40.34 206.84 40.34ZM 227.13 43.19C 227.13 44.49 227.82 45.23 228.97 45.23 230.07 45.23 230.78 44.55 230.78 43.23 230.78 43.23 230.78 39.71 230.78 39.71 230.78 39.71 231.46 39.71 231.46 39.71 231.46 39.71 231.46 43.18 231.46 43.18 231.46 44.94 230.45 45.86 228.95 45.86 227.46 45.86 226.45 44.94 226.45 43.23 226.45 43.23 226.45 39.71 226.45 39.71 226.45 39.71 227.13 39.71 227.13 39.71 227.13 39.71 227.13 43.19 227.13 43.19Z" fill="rgb(255,255,255)"/></svg>